<?xml version="1.0" encoding="UTF-8" standalone="no"?>
<svg
   viewBox="0 0 512 512"
   version="1.1"
   id="svg4"
   sodipodi:docname="logo.src.svg"
   inkscape:version="1.2.2 (1:1.2.2+202212051552+b0a8486541)"
   inkscape:export-filename="public/favicon.svg"
   inkscape:export-xdpi="96"
   inkscape:export-ydpi="96"
   width="512"
   height="512"
   xmlns:inkscape="http://www.inkscape.org/namespaces/inkscape"
   xmlns:sodipodi="http://sodipodi.sourceforge.net/DTD/sodipodi-0.dtd"
   xmlns="http://www.w3.org/2000/svg"
   xmlns:svg="http://www.w3.org/2000/svg">
  <defs
     id="defs8" />
  <sodipodi:namedview
     id="namedview6"
     pagecolor="#ffffff"
     bordercolor="#000000"
     borderopacity="0.25"
     inkscape:showpageshadow="2"
     inkscape:pageopacity="0"
     inkscape:pagecheckerboard="0"
     inkscape:deskcolor="#d1d1d1"
     showgrid="false"
     inkscape:zoom="0.51467799"
     inkscape:cx="138.92181"
     inkscape:cy="85.490346"
     inkscape:window-width="1366"
     inkscape:window-height="699"
     inkscape:window-x="0"
     inkscape:window-y="0"
     inkscape:window-maximized="1"
     inkscape:current-layer="svg4"
     showguides="false" />
  <circle
     style="opacity:0.99;fill:#97266d;fill-opacity:0.995512;stroke:none;stroke-width:2.857;stroke-miterlimit:200;paint-order:fill markers stroke"
     id="path528"
     cx="254.5715"
     cy="254.5715"
     r="256" />
  <path
     id="path2"
     d="m 179.20892,128.01485 c -21.20519,0 -38.39556,17.19037 -38.39556,38.39555 v 127.98515 h 204.77625 v 51.19406 l -0.075,1.49983 c -0.73976,6.36597 -6.16047,11.29867 -12.72353,11.29867 l -1.49984,-0.075 c -6.36594,-0.73976 -11.29866,-6.16047 -11.29866,-12.72353 v -25.597 H 115.21633 v 25.59703 c 0,21.20581 17.19037,38.39554 38.39556,38.39554 h 179.1792 c 21.20581,0 38.39555,-17.18974 38.39555,-38.39554 V 192.00743 h 25.59703 V 166.4104 c 0,-21.20518 -17.18973,-38.39555 -38.39555,-38.39555 z m 25.59702,44.7948 h 102.38812 v 25.59703 H 204.80594 Z m 0,51.19406 h 63.99258 v 25.59703 h -63.99258 z"
     style="fill:#ffffff;fill-opacity:1;stroke-width:12.7985" />
</svg>
